# xmcd
#
# Track frame offsets: 
#        150
#        12673
#        24565
#        39856
#        53694
#        67246
#        78949
#        92742
#        104029
#        117598
#        129747
#        144247
#        157028
#        170047
#        184556
#        197990
#        209965
#        223790
#        236538
#        249933
#        264080
#        275726
#        287415
#        299057
#        311891
#        326593
#        340659
#
# Disc length: 4698 seconds
#
# Revision: 3
# Processed by: cddbd v1.5.2PL0 Copyright (c) Steve Scherf et al.
# Submitted via: ExactAudioCopy v1.1
#
DISCID=ab12581b
DTITLE=Milton Brown and His Musical Brownies - Daddy Of Western Swing_CD
DTITLE=4 ''Keep A Knockin'''
DYEAR=2003
DGENRE=Western Swing
TTITLE0=Sadie Green (The Vamp Of New Orleans)
TTITLE1=Show Me The Way To Go Home
TTITLE2=The Yellow Rose Of Texas
TTITLE3=The Roseland Melody
TTITLE4=My Galveston Gal
TTITLE5=Yes Sir
TTITLE6=La Golondrina
TTITLE7=When I Take My Sugar To Tea
TTITLE8=Song Of The Wanderer
TTITLE9=Right Or Wrong
TTITLE10=Chinese Honeymoon
TTITLE11=Alice Blue Gown
TTITLE12=Fan It
TTITLE13=Tired Of The Same Thing All The Time
TTITLE14=I'll String Along With You
TTITLE15=Goofus
TTITLE16=Ida Sweet As Apple Cider
TTITLE17=When It's Harvest Time Sweet Angeline
TTITLE18=Carry Me Back To The Lone Prairie
TTITLE19=A Thousand Goodnights
TTITLE20=Keep A Knockin'
TTITLE21=Baby Keeps Stealin'
TTITLE22=The Old Grey Mare
TTITLE23=Derwood Brown and His Musical Brownies - Bring It On Down To My
TTITLE23=House Honey
TTITLE24=Derwood Brown and His Musical Brownies - High Geared Daddy
TTITLE25=Derwood Brown and His Musical Brownies - Honky Tonk Blues
TTITLE26=Derwood Brown and His Musical Brownies - Louise Louise Blues
EXTD=
EXTT0=
EXTT1=
EXTT2=
EXTT3=
EXTT4=
EXTT5=
EXTT6=
EXTT7=
EXTT8=
EXTT9=
EXTT10=
EXTT11=
EXTT12=
EXTT13=
EXTT14=
EXTT15=
EXTT16=
EXTT17=
EXTT18=
EXTT19=
EXTT20=
EXTT21=
EXTT22=
EXTT23=Bonus track with  Derwood Brown and his Musical Brownies.
EXTT24=Bonus track with  Derwood Brown and his Musical Brownies.
EXTT25=Bonus track with  Derwood Brown and his Musical Brownies.
EXTT26=Bonus track with  Derwood Brown and his Musical Brownies.
PLAYORDER=
